# xmcd
#
# Track frame offsets:
# 150
# 14525
# 25637
# 39517
# 50563
# 67337
# 79775
# 95859
# 108595
# 120234
#
# Disc length: 1781 seconds
#
#
# Revision: 0
# Processed by: cddbd v1.5.1PL0 Copyright (c) Steve Scherf et al.
# Submitted via: FreeRIP 2.942 
#
DISCID=8306f30a
DTITLE=Lance and Rebekah Thomas - Almost Home
DYEAR=2005
DGENRE=Gospel
TTITLE0=Almost Home (Lance Thomas)
TTITLE1=Lord You're The Best Thing
TTITLE2=Patchin It Up
TTITLE3=My Hope Is In The Blood
TTITLE4=I Still Believe Like Grandma
TTITLE5=Amazing Grace
TTITLE6=Secret Place
TTITLE7=I shall Not Be Moved (Revised)
TTITLE8=He'll Have To Walk Through The Blood
TTITLE9=What A Day That Will Be
EXTD=
EXTT0=
EXTT1=
EXTT2=
EXTT3=
EXTT4=
EXTT5=
EXTT6=
EXTT7=
EXTT8=
EXTT9=
PLAYORDER=
